{
  "accessors": [
    {
      "bufferView": 0,
      "componentType": 5125,
      "count": 44028,
      "type": "SCALAR"
    },
    {
      "bufferView": 1,
      "componentType": 5126,
      "count": 8388,
      "max": [
        0.022962240784139498,
        0.04040021037350178,
        0.02279275803207533
      ],
      "min": [
        -0.022962262498334662,
        -0.005523891403745873,
        -0.02279275803207533
      ],
      "type": "VEC3"
    },
    {
      "bufferView": 2,
      "componentType": 5126,
      "count": 8388,
      "max": [
        0.9999986257468899,
        0.9999997358576093,
        0.9997942276944144
      ],
      "min": [
        -0.9999986272342991,
        -0.9999986543246194,
        -0.9997942276944144
      ],
      "type": "VEC3"
    },
    {
      "bufferView": 3,
      "componentType": 5126,
      "count": 8388,
      "max": [
        0.8963714543639032,
        1.0
      ],
      "min": [
        0.0,
        0.0
      ],
      "type": "VEC2"
    },
    {
      "bufferView": 4,
      "componentType": 5125,
      "count": 75294,
      "type": "SCALAR"
    },
    {
      "bufferView": 5,
      "componentType": 5126,
      "count": 17067,
      "max": [
        0.20341044417489013,
        0.11943974316118511,
        0.035132263636315206
      ],
      "min": [
        -0.20341044417489013,
        -0.11943974316118511,
        -0.03513226363631521
      ],
      "type": "VEC3"
    },
    {
      "bufferView": 6,
      "componentType": 5126,
      "count": 17067,
      "max": [
        1.0,
        1.0,
        0.999991222489285
      ],
      "min": [
        -1.0,
        -1.0,
        -0.999991222489285
      ],
      "type": "VEC3"
    },
    {
      "bufferView": 7,
      "componentType": 5126,
      "count": 17067,
      "max": [
        0.7554188683583348,
        1.0
      ],
      "min": [
        0.0,
        0.0
      ],
      "type": "VEC2"
    }
  ],
  "asset": {
    "generator": "Adobe Illustrator",
    "version": "2.0"
  },
  "bufferViews": [
    {
      "buffer": 0,
      "byteLength": 176112,
      "target": 34963
    },
    {
      "buffer": 0,
      "byteLength": 100656,
      "byteOffset": 176112,
      "target": 34962
    },
    {
      "buffer": 0,
      "byteLength": 100656,
      "byteOffset": 276768,
      "target": 34962
    },
    {
      "buffer": 0,
      "byteLength": 67104,
      "byteOffset": 377424,
      "target": 34962
    },
    {
      "buffer": 0,
      "byteLength": 301176,
      "byteOffset": 444528,
      "target": 34963
    },
    {
      "buffer": 0,
      "byteLength": 204804,
      "byteOffset": 745704,
      "target": 34962
    },
    {
      "buffer": 0,
      "byteLength": 204804,
      "byteOffset": 950508,
      "target": 34962
    },
    {
      "buffer": 0,
      "byteLength": 136536,
      "byteOffset": 1155312,
      "target": 34962
    }
  ],
  "buffers": [
    {
      "byteLength": 1291848,
      "uri": "data:application/octet-stream;base64,"
    }
  ],
  "materials": [
    {
      "doubleSided": true,
      "pbrMetallicRoughness": {
        "baseColorFactor": [
          0.49609375,
          0.5,
          0.5,
          1.0
        ],
        "metallicFactor": 0.632826030254364,
        "roughnessFactor": 0.4000000059604645
      }
    },
    {
      "doubleSided": true,
      "pbrMetallicRoughness": {
        "baseColorFactor": [
          0.49609375,
          0.5,
          0.5,
          1.0
        ],
        "metallicFactor": 0.632826030254364,
        "roughnessFactor": 0.4000000059604645
      }
    }
  ],
  "meshes": [
    {
      "primitives": [
        {
          "attributes": {
            "NORMAL": 2,
            "POSITION": 1,
            "TEXCOORD_0": 3
          },
          "indices": 0,
          "material": 0,
          "mode": 4
        }
      ]
    },
    {
      "primitives": [
        {
          "attributes": {
            "NORMAL": 6,
            "POSITION": 5,
            "TEXCOORD_0": 7
          },
          "indices": 4,
          "material": 1,
          "mode": 4
        }
      ]
    }
  ],
  "nodes": [
    {
      "mesh": 0
    },
    {
      "mesh": 1
    }
  ],
  "scenes": [
    {
      "nodes": [
        0,
        1
      ]
    }
  ]
}
