<svg width="169" height="32" viewBox="0 0 169 32" fill="none" xmlns="http://www.w3.org/2000/svg">
<path d="M136.471 0.0684322C135.416 0.0342161 134.327 0.0114054 133.216 0H131.749C119.784 0 110.952 1.18269 104.897 3.47913C104.064 3.78609 103.309 4.11585 102.587 4.47983C100.854 5.32135 99.4098 6.27642 98.2542 7.34506C97.2318 8.27732 95.7991 8.2322 94.8659 7.18588L89.7668 1.40534C89.3351 0.915901 88.7212 0.636717 88.0772 0.636717H69.2036C68.6047 0.636717 68.0301 0.878214 67.6042 1.30914L58.1928 10.8247L53.9721 15.0913C53.8781 15.1865 53.7478 15.2331 53.6164 15.2192C41.2126 13.9146 28.8423 14.5587 16.3982 14.8116V14.759H16.3759V7.89152H55.0831C55.5749 7.89152 56.0473 7.69367 56.3981 7.3406L62.0593 1.64337C62.4256 1.27492 62.1707 0.637213 61.6571 0.637213H1.04463C0.467566 0.636717 0 1.11525 0 1.70585V30.9259C0 31.5165 0.467566 31.995 1.04463 31.995H15.3303C15.9074 31.995 16.375 31.5165 16.375 30.9259V22.6605C26.391 21.0052 37.3287 19.6291 47.9567 20.0978C48.3439 20.1146 48.5256 20.5956 48.2499 20.8743L42.783 26.401L38.3438 30.8803C37.9387 31.2889 38.2217 31.995 38.7905 31.995H53.9619C54.4275 31.995 54.8709 31.7937 55.1834 31.4401L60.6144 25.2981L62.8176 22.9808C63.1848 22.5945 63.7289 22.4448 64.2362 22.5891C65.9776 23.085 67.6909 23.6572 69.3654 24.3277C72.6679 25.6477 76.0441 27.4378 79.8292 28.7167C87.3136 31.3861 95.2947 31.7149 103.086 32V31.995H131.749C157.746 31.995 169 26.276 169 15.9631C169 6.33246 159.112 0.726968 136.471 0.0674405V0.0684322ZM81.5861 22.6575C77.3925 21.4728 73.0153 19.6653 68.5737 18.202C68.1493 18.0621 68.017 17.5147 68.3285 17.1879L77.9328 7.11398C78.3175 6.71082 78.9512 6.71082 79.3355 7.11398L89.166 17.4299L94.0727 22.5826C94.4298 22.9575 94.1915 23.5883 93.6808 23.621C89.5575 23.8868 85.487 23.6686 81.5861 22.6565V22.6575ZM131.749 25.2872C115.918 25.2872 109.73 22.3649 109.73 15.9636C109.73 9.56216 115.829 6.70834 131.749 6.70834H132.105C132.605 6.70834 133.093 6.71975 133.571 6.73115C148.136 6.94736 153.757 9.89193 153.757 15.9636C153.757 22.0352 147.581 25.2872 131.749 25.2872Z" fill="#F5F5F5"/>
</svg>
